# Blender 5.1.0
# www.blender.org
mtllib cataventoCabo.mtl
o PinwheelPole
v 0.003416 -0.001434 -0.015391
v 0.002948 -0.001434 -0.017137
v 0.001670 -0.001434 -0.018415
v -0.000076 -0.001434 -0.018883
v -0.001822 -0.001434 -0.018415
v -0.003100 -0.001434 -0.017137
v -0.003568 -0.001434 -0.015391
v -0.003100 -0.001434 -0.013644
v -0.001822 -0.001434 -0.012366
v -0.000076 -0.001434 -0.011898
v 0.001670 -0.001434 -0.012366
v 0.002948 -0.001434 -0.013644
v 0.003416 0.439136 -0.015391
v 0.002948 0.439136 -0.017137
v 0.001670 0.439136 -0.018415
v -0.000076 0.439136 -0.018883
v -0.001822 0.439136 -0.018415
v -0.003100 0.439136 -0.017137
v -0.003568 0.439136 -0.015391
v -0.003100 0.439136 -0.013644
v -0.001822 0.439136 -0.012366
v -0.000076 0.439136 -0.011898
v 0.001670 0.439136 -0.012366
v 0.002948 0.439136 -0.013644
v 0.003416 0.432598 -0.015293
v 0.002948 0.434344 -0.015293
v 0.001670 0.435623 -0.015293
v -0.000076 0.436090 -0.015293
v -0.001822 0.435623 -0.015293
v -0.003100 0.434344 -0.015293
v -0.003568 0.432598 -0.015293
v -0.003100 0.430852 -0.015293
v -0.001822 0.429574 -0.015293
v -0.000076 0.429106 -0.015293
v 0.001670 0.429574 -0.015293
v 0.002948 0.430852 -0.015293
v 0.003416 0.432598 0.006915
v 0.002948 0.434344 0.006915
v 0.001670 0.435623 0.006915
v -0.000076 0.436090 0.006915
v -0.001822 0.435623 0.006915
v -0.003100 0.434344 0.006915
v -0.003568 0.432598 0.006915
v -0.003100 0.430852 0.006915
v -0.001822 0.429574 0.006915
v -0.000076 0.429106 0.006915
v 0.001670 0.429574 0.006915
v 0.002948 0.430852 0.006915
v 0.003416 0.437304 -0.015391
v 0.003416 0.000398 -0.015391
v 0.002948 0.000398 -0.017137
v 0.002948 0.437304 -0.017137
v 0.001670 0.000398 -0.018415
v 0.001670 0.437304 -0.018415
v -0.000076 0.000398 -0.018883
v -0.000076 0.437304 -0.018883
v -0.001822 0.000398 -0.018415
v -0.001822 0.437304 -0.018415
v -0.003100 0.000398 -0.017137
v -0.003100 0.437304 -0.017137
v -0.003568 0.000398 -0.015391
v -0.003568 0.437304 -0.015391
v -0.003100 0.000398 -0.013644
v -0.003100 0.437304 -0.013644
v -0.001822 0.000398 -0.012366
v -0.001822 0.437304 -0.012366
v -0.000076 0.000398 -0.011898
v -0.000076 0.437304 -0.011898
v 0.001670 0.000398 -0.012366
v 0.001670 0.437304 -0.012366
v 0.002948 0.000398 -0.013644
v 0.002948 0.437304 -0.013644
vn 1.0000 -0.0000 -0.0000
vn 0.8660 -0.0000 -0.5000
vn 0.5000 -0.0000 -0.8660
vn -0.0000 -0.0000 -1.0000
vn -0.5000 -0.0000 -0.8660
vn -0.8660 -0.0000 -0.5000
vn -1.0000 -0.0000 -0.0000
vn -0.8660 -0.0000 0.5000
vn -0.5000 -0.0000 0.8660
vn -0.0000 -0.0000 1.0000
vn 0.5000 -0.0000 0.8660
vn 0.8660 -0.0000 0.5000
vn -0.0000 -0.6532 -0.7572
vn 0.3786 -0.6532 -0.6557
vn -0.6557 -0.6532 0.3786
vn -0.7572 -0.6532 -0.0000
vn -0.3786 0.6532 0.6557
vn -0.0000 0.6532 0.7572
vn 0.7572 0.6532 -0.0000
vn 0.6557 0.6532 -0.3786
vn 0.8660 0.5000 -0.0000
vn 0.6557 0.3786 0.6532
vn 0.7572 -0.0000 0.6532
vn 0.5000 0.8660 -0.0000
vn 0.3786 0.6557 0.6532
vn -0.0000 1.0000 -0.0000
vn -0.0000 0.7572 0.6532
vn -0.5000 0.8660 -0.0000
vn -0.3786 0.6557 0.6532
vn -0.8660 0.5000 -0.0000
vn -0.6557 0.3786 0.6532
vn -0.7572 -0.0000 0.6532
vn -0.8660 -0.5000 -0.0000
vn -0.6557 -0.3786 0.6532
vn -0.5000 -0.8660 -0.0000
vn -0.3786 -0.6557 0.6532
vn -0.0000 -1.0000 -0.0000
vn -0.0000 -0.7572 0.6532
vn 0.5000 -0.8660 -0.0000
vn 0.3786 -0.6557 0.6532
vn 0.8660 -0.5000 -0.0000
vn 0.6557 -0.3786 0.6532
vn 0.3786 0.6532 0.6557
vn 0.6557 0.6532 0.3786
vn 0.3786 0.6532 -0.6557
vn -0.6557 0.6532 0.3786
vn -0.0000 0.6532 -0.7572
vn -0.7572 0.6532 -0.0000
vn -0.3786 0.6532 -0.6557
vn -0.6557 0.6532 -0.3786
vn -0.6557 -0.6532 -0.3786
vn -0.3786 -0.6532 -0.6557
vn 0.6557 -0.6532 -0.3786
vn -0.3786 -0.6532 0.6557
vn 0.7572 -0.6532 -0.0000
vn -0.0000 -0.6532 0.7572
vn 0.6557 -0.6532 0.3786
vn 0.3786 -0.6532 0.6557
vt 0.000716 0.006974
vt 0.065605 0.006974
vt 0.065605 0.994235
vt 0.000716 0.994235
vt 0.130495 0.006974
vt 0.130495 0.994235
vt 0.195384 0.006974
vt 0.195384 0.994235
vt 0.260273 0.006974
vt 0.260273 0.994235
vt 0.325163 0.006974
vt 0.325163 0.994235
vt 0.390052 0.006974
vt 0.390052 0.994235
vt 0.454942 0.006974
vt 0.454942 0.994235
vt 0.519831 0.006974
vt 0.519831 0.994235
vt 0.584721 0.006974
vt 0.584721 0.994235
vt 0.649610 0.006974
vt 0.649610 0.994235
vt 0.714499 0.006974
vt 0.714499 0.994235
vt 0.779389 0.006974
vt 0.779389 0.994235
vt 0.788760 0.470747
vt 0.802795 0.523126
vt 0.945899 0.380023
vt 0.893520 0.365988
vt 0.983623 0.629949
vt 0.997658 0.682328
vt 0.892899 0.787087
vt 0.840520 0.773052
vt 0.981246 0.003023
vt 0.998740 0.003023
vt 0.998740 0.362627
vt 0.981246 0.362627
vt 0.788821 0.003023
vt 0.806314 0.003023
vt 0.806314 0.362627
vt 0.788821 0.362627
vt 0.823807 0.003023
vt 0.823807 0.362627
vt 0.841299 0.003023
vt 0.841299 0.362627
vt 0.858792 0.003023
vt 0.858792 0.362627
vt 0.876286 0.003023
vt 0.876286 0.362627
vt 0.893780 0.003023
vt 0.893780 0.362627
vt 0.911273 0.003023
vt 0.911273 0.362627
vt 0.928766 0.003023
vt 0.928766 0.362627
vt 0.946259 0.003023
vt 0.946259 0.362627
vt 0.963753 0.003023
vt 0.963753 0.362627
vt 0.984140 0.842119
vt 0.998175 0.894499
vt 0.893416 0.999258
vt 0.841036 0.985223
vt 0.893416 0.789740
vt 0.788657 0.894499
vt 0.802692 0.842119
vt 0.841036 0.803775
vt 0.945795 0.803775
vt 0.802692 0.946879
vt 0.984140 0.946879
vt 0.945795 0.985223
vt 0.983623 0.734708
vt 0.945279 0.773052
vt 0.802175 0.734708
vt 0.945279 0.591604
vt 0.788140 0.682328
vt 0.892899 0.577569
vt 0.802175 0.629949
vt 0.840520 0.591604
vt 0.841140 0.380023
vt 0.802795 0.418367
vt 0.841140 0.561471
vt 0.984244 0.418367
vt 0.893520 0.575506
vt 0.998279 0.470747
vt 0.945899 0.561471
vt 0.984244 0.523126
vt 0.000716 0.002834
vt 0.065605 0.002834
vt 0.065605 0.998375
vt 0.000716 0.998375
vt 0.130495 0.002834
vt 0.130495 0.998375
vt 0.195384 0.002834
vt 0.195384 0.998375
vt 0.260273 0.002834
vt 0.260273 0.998375
vt 0.325163 0.002834
vt 0.325163 0.998375
vt 0.390052 0.002834
vt 0.390052 0.998375
vt 0.454942 0.002834
vt 0.454942 0.998375
vt 0.519831 0.002834
vt 0.519831 0.998375
vt 0.584721 0.002834
vt 0.584721 0.998375
vt 0.649610 0.002834
vt 0.649610 0.998375
vt 0.714499 0.002834
vt 0.714499 0.998375
vt 0.779389 0.002834
vt 0.779389 0.998375
s 1
usemtl PinwheelPole
f 50/1/1 51/2/2 52/3/2
f 52/3/2 49/4/1 50/1/1
f 51/2/2 53/5/3 54/6/3
f 54/6/3 52/3/2 51/2/2
f 53/5/3 55/7/4 56/8/4
f 56/8/4 54/6/3 53/5/3
f 55/7/4 57/9/5 58/10/5
f 58/10/5 56/8/4 55/7/4
f 57/9/5 59/11/6 60/12/6
f 60/12/6 58/10/5 57/9/5
f 59/11/6 61/13/7 62/14/7
f 62/14/7 60/12/6 59/11/6
f 61/13/7 63/15/8 64/16/8
f 64/16/8 62/14/7 61/13/7
f 63/15/8 65/17/9 66/18/9
f 66/18/9 64/16/8 63/15/8
f 65/17/9 67/19/10 68/20/10
f 68/20/10 66/18/9 65/17/9
f 67/19/10 69/21/11 70/22/11
f 70/22/11 68/20/10 67/19/10
f 69/21/11 71/23/12 72/24/12
f 72/24/12 70/22/11 69/21/11
f 71/23/12 50/25/1 49/26/1
f 49/26/1 72/24/12 71/23/12
f 4/27/13 3/28/14 8/29/15
f 8/29/15 7/30/16 4/27/13
f 21/31/17 22/32/18 13/33/19
f 13/33/19 14/34/20 21/31/17
f 25/35/1 26/36/21 38/37/22
f 38/37/22 37/38/23 25/35/1
f 26/39/21 27/40/24 39/41/25
f 39/41/25 38/42/22 26/39/21
f 27/40/24 28/43/26 40/44/27
f 40/44/27 39/41/25 27/40/24
f 28/43/26 29/45/28 41/46/29
f 41/46/29 40/44/27 28/43/26
f 29/45/28 30/47/30 42/48/31
f 42/48/31 41/46/29 29/45/28
f 30/47/30 31/49/7 43/50/32
f 43/50/32 42/48/31 30/47/30
f 31/49/7 32/51/33 44/52/34
f 44/52/34 43/50/32 31/49/7
f 32/51/33 33/53/35 45/54/36
f 45/54/36 44/52/34 32/51/33
f 33/53/35 34/55/37 46/56/38
f 46/56/38 45/54/36 33/53/35
f 34/55/37 35/57/39 47/58/40
f 47/58/40 46/56/38 34/55/37
f 35/57/39 36/59/41 48/60/42
f 48/60/42 47/58/40 35/57/39
f 36/59/41 25/35/1 37/38/23
f 37/38/23 48/60/42 36/59/41
f 45/61/36 46/62/38 37/63/23
f 37/63/23 38/64/22 45/61/36
f 43/65/32 40/66/27 41/67/29
f 41/67/29 42/68/31 43/65/32
f 44/69/34 39/70/25 40/66/27
f 40/66/27 43/65/32 44/69/34
f 45/61/36 38/64/22 39/70/25
f 39/70/25 44/69/34 45/61/36
f 37/63/23 46/62/38 47/71/40
f 47/71/40 48/72/42 37/63/23
f 13/33/19 22/32/18 23/73/43
f 23/73/43 24/74/44 13/33/19
f 21/31/17 14/34/20 15/75/45
f 15/75/45 20/76/46 21/31/17
f 20/76/46 15/75/45 16/77/47
f 16/77/47 19/78/48 20/76/46
f 19/78/48 16/77/47 17/79/49
f 17/79/49 18/80/50 19/78/48
f 4/27/13 7/30/16 6/81/51
f 6/81/51 5/82/52 4/27/13
f 8/29/15 3/28/14 2/83/53
f 2/83/53 9/84/54 8/29/15
f 9/84/54 2/83/53 1/85/55
f 1/85/55 10/86/56 9/84/54
f 10/86/56 1/85/55 12/87/57
f 12/87/57 11/88/58 10/86/56
f 1/89/55 2/90/53 51/2/2
f 51/2/2 50/1/1 1/89/55
f 14/91/20 13/92/19 49/4/1
f 49/4/1 52/3/2 14/91/20
f 2/90/53 3/93/14 53/5/3
f 53/5/3 51/2/2 2/90/53
f 15/94/45 14/91/20 52/3/2
f 52/3/2 54/6/3 15/94/45
f 3/93/14 4/95/13 55/7/4
f 55/7/4 53/5/3 3/93/14
f 16/96/47 15/94/45 54/6/3
f 54/6/3 56/8/4 16/96/47
f 4/95/13 5/97/52 57/9/5
f 57/9/5 55/7/4 4/95/13
f 17/98/49 16/96/47 56/8/4
f 56/8/4 58/10/5 17/98/49
f 5/97/52 6/99/51 59/11/6
f 59/11/6 57/9/5 5/97/52
f 18/100/50 17/98/49 58/10/5
f 58/10/5 60/12/6 18/100/50
f 6/99/51 7/101/16 61/13/7
f 61/13/7 59/11/6 6/99/51
f 19/102/48 18/100/50 60/12/6
f 60/12/6 62/14/7 19/102/48
f 7/101/16 8/103/15 63/15/8
f 63/15/8 61/13/7 7/101/16
f 20/104/46 19/102/48 62/14/7
f 62/14/7 64/16/8 20/104/46
f 8/103/15 9/105/54 65/17/9
f 65/17/9 63/15/8 8/103/15
f 21/106/17 20/104/46 64/16/8
f 64/16/8 66/18/9 21/106/17
f 9/105/54 10/107/56 67/19/10
f 67/19/10 65/17/9 9/105/54
f 22/108/18 21/106/17 66/18/9
f 66/18/9 68/20/10 22/108/18
f 10/107/56 11/109/58 69/21/11
f 69/21/11 67/19/10 10/107/56
f 23/110/43 22/108/18 68/20/10
f 68/20/10 70/22/11 23/110/43
f 11/109/58 12/111/57 71/23/12
f 71/23/12 69/21/11 11/109/58
f 24/112/44 23/110/43 70/22/11
f 70/22/11 72/24/12 24/112/44
f 12/111/57 1/113/55 50/25/1
f 50/25/1 71/23/12 12/111/57
f 13/114/19 24/112/44 72/24/12
f 72/24/12 49/26/1 13/114/19
