# Blender 5.1.0
# www.blender.org
o GALLO.002
v -0.999819 0.490000 1.301029
v -1.366460 0.490000 -0.924090
v -1.002034 0.490000 -0.923079
v -0.998825 0.490000 -1.551436
v -0.000439 0.490001 -1.552390
v -1.366460 0.490001 0.075276
v -0.001891 0.490001 -0.999982
v -1.000849 0.490000 0.631256
v -0.997147 0.490001 0.073751
v -1.000216 0.490000 1.256029
v 1.134727 0.490000 -1.000081
v 1.347123 0.490000 -0.665112
v 0.471979 0.490000 0.000151
v 1.349634 0.490000 -0.332434
v 1.134311 0.490000 -0.000474
v 0.478946 0.490000 1.301119
vn -0.0000 1.0000 -0.0000
vt 0.104460 0.305727
vt 0.104641 0.127220
vt 0.104755 0.114363
vt 0.527259 0.114337
vt 0.525268 0.486042
vt 0.714506 0.486221
vt 0.776027 0.581067
vt 0.775309 0.676118
vt 0.714625 0.771823
vt 0.389877 0.771795
vt 0.390292 0.929626
vt 0.105039 0.929353
vt 0.104122 0.749822
vt 0.000000 0.750111
vt 0.000000 0.464578
vt 0.105518 0.465014
s 1
f 8/1/1 10/2/1 1/3/1 16/4/1 13/5/1 15/6/1 14/7/1 12/8/1 11/9/1 7/10/1 5/11/1 4/12/1 3/13/1 2/14/1 6/15/1 9/16/1
