# Blender 5.1.0
# www.blender.org
o GALLO.001
v -1.401597 -0.680000 0.106959
v 0.027931 -0.680000 -1.584143
v 1.382821 -0.680000 -0.323788
v 1.384981 -0.680000 -0.670544
v 1.153645 -0.680000 -1.026959
v 0.037151 -0.680000 -1.035802
v -1.024950 -0.680000 -1.578792
v -1.033623 -0.680000 1.324775
v -1.033411 -0.680000 -0.967771
v -1.407484 -0.680000 -0.959212
v -1.035380 -0.680000 0.108906
v 1.139770 -0.680000 0.032449
v 0.528129 -0.680000 1.333147
v 0.487751 -0.680000 0.003550
vn -0.0000 1.0000 -0.0000
vt 0.052244 0.810128
vt 0.053716 0.543585
vt 0.145270 0.543099
vt 0.145709 0.239131
vt 0.536147 0.237038
vt 0.526053 0.569437
vt 0.689057 0.562213
vt 0.749820 0.651272
vt 0.750360 0.737961
vt 0.692526 0.827065
vt 0.413403 0.829275
vt 0.411098 0.966361
vt 0.147878 0.965023
vt 0.145762 0.812268
s 1
f 10/1/1 1/2/1 11/3/1 8/4/1 13/5/1 14/6/1 12/7/1 3/8/1 4/9/1 5/10/1 6/11/1 2/12/1 7/13/1 9/14/1
