# Blender 5.1.0
# www.blender.org
mtllib mailbox.mtl
o Mailbox
v -0.738692 -9.779253 2.736637
v -0.738692 -9.298458 2.736637
v -0.738692 -9.779253 0.736637
v -0.738692 -9.298458 0.736637
v 1.261308 -9.779253 2.736637
v 1.261308 -9.298458 2.736637
v 1.261308 -9.779253 0.736637
v 1.261308 -9.298458 0.736637
v -0.430733 -9.298458 2.428678
v -0.430733 -9.298458 1.044595
v 0.953350 -9.298458 1.044595
v 0.953350 -9.298458 2.428678
v -0.430733 -0.763191 2.428678
v -0.430733 -0.763191 1.044595
v 0.953350 -0.763191 1.044595
v 0.953350 -0.763191 2.428678
v -0.757791 -0.763191 2.755736
v -0.757791 -0.763191 0.717537
v 1.280408 -0.763191 0.717537
v 1.280408 -0.763191 2.755736
v -0.757791 -0.296692 2.755736
v -0.757791 -0.296692 0.717537
v 1.280408 -0.296692 0.717537
v 1.280408 -0.296692 2.755736
v -1.547707 -0.296692 4.762423
v -1.547707 -0.296692 -1.289150
v 2.070323 -0.296692 -1.289150
v 2.070323 -0.296692 4.762423
v -1.547707 1.905652 4.762423
v -1.547707 1.905652 -1.289150
v 2.070323 1.905652 -1.289150
v 2.070323 1.905652 4.762423
v -1.181184 2.813025 4.762423
v -1.181184 2.813025 -1.289149
v 1.703801 2.813025 -1.289149
v 1.703801 2.813025 4.762423
v -0.267376 3.320501 4.762422
v -0.267376 3.320501 -1.289149
v 0.789993 3.320501 -1.289149
v 0.789993 3.320501 4.762422
v -1.797139 -0.573492 -1.323220
v 2.319755 -0.573492 -1.323220
v 2.319755 -0.573492 4.796494
v -1.797139 -0.573492 4.796494
v -1.797139 1.944594 -1.323220
v 2.319755 1.944594 -1.323220
v 2.319755 1.944594 4.796494
v -1.797139 1.944594 4.796494
v -1.380080 2.982054 -1.323220
v 1.902696 2.982054 -1.323220
v 1.902696 2.982054 4.796494
v -1.380080 2.982054 4.796494
v -0.340272 3.562285 -1.323220
v 0.862889 3.562285 -1.323220
v 0.862889 3.562285 4.796494
v -0.340272 3.562285 4.796494
v -1.797139 -0.573492 -1.589287
v 2.319755 -0.573492 -1.589287
v 2.319755 -0.573492 5.062566
v -1.797139 -0.573492 5.062566
v -1.797139 1.944594 -1.589287
v 2.319755 1.944594 -1.589287
v 2.319755 1.944594 5.062566
v -1.797139 1.944594 5.062566
v -1.380079 2.982054 -1.589286
v 1.902696 2.982054 -1.589286
v 1.902696 2.982054 5.062566
v -1.380079 2.982054 5.062566
v -0.340272 3.562285 -1.589286
v 0.862889 3.562285 -1.589286
v 0.862889 3.562285 5.062565
v -0.340272 3.562285 5.062565
v -1.357929 -0.106659 -1.589281
v 1.880546 -0.106659 -1.589281
v -1.357929 1.874144 -1.589281
v 1.880546 1.874144 -1.589281
v -1.029857 2.690242 -1.589281
v 1.552474 2.690242 -1.589281
v -0.211913 3.146669 -1.589281
v 0.734530 3.146669 -1.589281
v -1.357929 -0.106659 2.857163
v 1.880546 -0.106659 2.857163
v -1.357929 1.874144 2.857163
v 1.880546 1.874144 2.857163
v -1.029857 2.690242 2.857164
v 1.552474 2.690242 2.857164
v -0.211913 3.146669 2.857164
v 0.734530 3.146669 2.857164
v -1.797138 -0.620302 -4.187474
v 2.319755 -0.620302 -4.187474
v -1.797138 -0.311862 -1.688350
v 2.319755 -0.311862 -1.688350
v 1.902696 -0.747382 -5.217123
v -1.380079 -0.747382 -5.217123
v 0.862889 -0.818454 -5.792984
v -0.340272 -0.818454 -5.792984
v -1.797138 -0.570274 -1.656458
v -1.797138 -0.878714 -4.155581
v 2.319755 -0.878714 -4.155581
v 2.319755 -0.570274 -1.656458
v 1.902696 -1.005793 -5.185229
v -1.380079 -1.005793 -5.185229
v 0.862889 -1.076866 -5.761091
v -0.340272 -1.076866 -5.761091
v -1.577534 -0.340076 -1.589284
v -1.577534 1.909369 -1.589284
v -0.276093 3.354477 -1.589284
v -1.204968 2.836148 -1.589284
v 0.798709 3.354477 -1.589284
v 1.727585 2.836148 -1.589284
v 2.100150 -0.340076 -1.589284
v 2.100150 1.909369 -1.589284
v 2.319755 -0.343724 -1.589287
v -1.797139 -0.332545 -1.589287
v -0.584063 -0.783531 -3.675934
v -0.584063 -0.881577 -4.182680
v 1.106680 -0.881577 -4.182680
v 1.106680 -0.783531 -3.675934
v 0.935400 -0.921973 -4.391460
v -0.412784 -0.921973 -4.391460
v 0.508368 -0.944565 -4.508228
v 0.014249 -0.944565 -4.508228
v -0.584063 -0.988686 -3.636241
v -0.584063 -1.086731 -4.142986
v 1.106680 -1.086731 -4.142986
v 1.106680 -0.988686 -3.636241
v 0.935400 -1.127127 -4.351767
v -0.412784 -1.127127 -4.351767
v 0.508368 -1.149719 -4.468534
v 0.014249 -1.149719 -4.468534
v -0.452727 -1.097187 -3.698032
v -0.452727 -1.180000 -4.126050
v 0.975344 -1.180000 -4.126050
v 0.975344 -1.097187 -3.698032
v 0.830674 -1.214120 -4.302395
v -0.308057 -1.214120 -4.302395
v 0.469985 -1.233202 -4.401021
v 0.052632 -1.233202 -4.401021
v -1.547704 0.572157 1.038006
v -1.547704 0.407492 -0.064589
v -1.547704 1.441513 1.038006
v -1.547704 1.314635 -0.064589
v -1.547707 0.954627 4.762423
v -1.547706 0.140558 3.998010
v -1.547706 1.727880 3.399015
v -1.547706 0.797495 3.751585
v -1.547705 -0.014534 3.066323
v -1.547705 1.620488 2.529056
v -1.547705 0.774254 2.813584
v -1.903578 0.572157 1.038006
v -1.903577 0.407492 -0.064589
v -1.903578 1.441513 1.038006
v -1.903577 1.314635 -0.064589
v -1.903579 1.620488 2.529056
v -1.903579 0.774254 2.813584
v -1.903579 0.797495 3.751585
v -1.903579 1.727880 3.399015
v -1.903579 0.140558 3.998009
v -1.903579 -0.014534 3.066323
vn -1.0000 -0.0000 -0.0000
vn -0.0000 -0.0000 -1.0000
vn 1.0000 -0.0000 -0.0000
vn -0.0000 -0.0000 1.0000
vn -0.0000 -1.0000 -0.0000
vn -0.0000 1.0000 -0.0000
vn -0.1269 0.0511 -0.9906
vn -0.0668 0.1201 0.9905
vn 0.1353 -0.0000 -0.9908
vn 0.1269 0.0511 -0.9906
vn -0.0000 0.1395 -0.9902
vn 0.9272 0.3745 -0.0000
vn -0.9272 0.3745 -0.0000
vn 0.4855 0.8742 -0.0000
vn -0.4855 0.8742 -0.0000
vn 0.1353 -0.0000 0.9908
vn 0.9278 0.3730 -0.0000
vn -0.9278 0.3730 -0.0000
vn -0.4873 0.8732 -0.0000
vn -0.1353 -0.0000 -0.9908
vn 0.0668 0.1201 0.9905
vn -0.1269 0.0511 0.9906
vn -0.1353 -0.0000 0.9908
vn 0.0669 0.1201 -0.9905
vn 0.1269 0.0511 0.9906
vn -0.0000 -0.1222 0.9925
vn -0.0669 0.1201 -0.9905
vn -0.0000 0.1395 0.9902
vn -0.0000 -0.1222 -0.9925
vn 0.4873 0.8732 -0.0000
vn -0.9278 -0.3730 -0.0000
vn 0.4873 -0.8732 -0.0000
vn -0.4873 -0.8732 -0.0000
vn 0.9278 -0.3730 -0.0000
vn -0.0000 -0.9925 0.1225
vn -0.0089 0.9915 -0.1299
vn -0.0054 0.9941 -0.1085
vn 0.0054 0.9941 -0.1085
vn 0.0102 0.9937 -0.1115
vn -0.0102 0.9937 -0.1115
vn 0.0107 0.9937 -0.1118
vn -0.4873 0.1070 0.8667
vn 0.9278 0.0457 0.3702
vn 0.4873 0.1070 0.8667
vn -0.0000 0.1225 0.9925
vn -0.9278 0.0457 0.3702
vn -0.0000 -0.1225 -0.9925
vn -0.0000 0.9989 0.0478
vn -0.0013 -0.9620 -0.2730
vn -0.0000 0.1900 0.9818
vn 0.2683 0.1830 0.9458
vn -0.0000 0.9945 -0.1050
vn 0.0248 0.9907 -0.1340
vn -0.0107 0.9937 -0.1118
vn 0.0089 0.9915 -0.1299
vn -0.0248 0.9907 -0.1340
vn 0.2279 0.6735 0.7032
vn 0.5852 0.7961 -0.1540
vn 0.5313 0.7992 0.2812
vn -0.7788 0.1192 0.6159
vn -0.0000 -0.1900 -0.9818
vn -0.2683 0.1830 0.9458
vn 0.7788 0.1192 0.6159
vn -0.0000 0.9818 -0.1900
vn -0.0000 0.6288 0.7776
vn -0.5313 0.7992 0.2812
vn -0.0000 0.4949 -0.8690
vn -0.5852 0.7961 -0.1540
vn -0.2279 0.6735 0.7032
vn -0.0000 -0.3051 -0.9523
vn -0.0000 0.3512 0.9363
vn -0.0000 0.3528 0.9357
vn -0.0000 -0.9936 0.1131
vn -0.0000 -0.9890 0.1477
vn -0.0000 0.9932 -0.1167
vn -0.0000 0.9934 -0.1143
vn -0.0000 -0.9864 0.1642
vn -0.0000 0.9925 -0.1225
vn -0.0000 0.9927 -0.1208
vn -0.0000 0.3544 0.9351
vt 0.249431 0.532927
vt 0.249431 0.687163
vt 0.559139 0.687163
vt 0.559139 0.532927
vt 0.297119 0.556675
vt 0.297119 0.663413
vt 0.253551 0.164709
vt 0.253551 0.431067
vt 0.511450 0.556675
vt 0.511450 0.663413
vt 0.562096 0.688636
vt 0.562096 0.531454
vt 0.310930 0.164709
vt 0.310930 0.431067
vt 0.246473 0.688636
vt 0.246473 0.531454
vt 0.357295 0.546474
vt 0.264592 0.546474
vt 0.544157 0.546474
vt 0.544157 0.624863
vt 0.264592 0.624863
vt 0.451454 0.546474
vt 0.264592 0.657160
vt 0.263018 0.626249
vt 0.263018 0.663176
vt 0.544157 0.657160
vt 0.544157 0.675222
vt 0.545731 0.683828
vt 0.545731 0.663176
vt 0.263018 0.536622
vt 0.264592 0.675222
vt 0.263018 0.683828
vt 0.545731 0.536622
vt 0.545731 0.626249
vt 0.558022 0.683828
vt 0.250727 0.536622
vt 0.250727 0.626249
vt 0.558022 0.626249
vt 0.558022 0.663176
vt 0.250727 0.663176
vt 0.250727 0.683828
vt 0.264592 0.591013
vt 0.558022 0.676432
vt 0.558022 0.669035
vt 0.558022 0.657983
vt 0.558022 0.652789
vt 0.558022 0.544930
vt 0.558022 0.624995
vt 0.558022 0.623742
vt 0.558022 0.553238
vt 0.558022 0.545198
vt 0.558022 0.536622
vt 0.625000 0.750000
vt 0.875000 0.750000
vt 0.558022 0.544800
vt 0.625000 0.500000
vt 0.625000 0.250000
vt 0.875000 0.500000
vt 0.475128 0.629411
vt 0.460061 0.666607
vt 0.341469 0.666607
vt 0.326402 0.629411
vt 0.475128 0.539128
vt 0.326402 0.539128
vt 0.422498 0.687411
vt 0.379032 0.687411
vt 0.326402 0.628258
vt 0.341469 0.665455
vt 0.376413 0.636780
vt 0.370225 0.629237
vt 0.379032 0.686258
vt 0.422498 0.686258
vt 0.409690 0.640998
vt 0.391840 0.640998
vt 0.460061 0.665455
vt 0.425117 0.636780
vt 0.475128 0.628258
vt 0.475128 0.537976
vt 0.625000 1.000000
vt 0.326402 0.537976
vt 0.625000 0.500000
vt 0.475128 0.535548
vt 0.326402 0.535548
vt 0.334335 0.535548
vt 0.467195 0.535548
vt 0.740498 0.676278
vt 0.698623 0.676278
vt 0.698623 0.672569
vt 0.740498 0.672569
vt 0.662433 0.665368
vt 0.662433 0.661659
vt 0.647917 0.645860
vt 0.647917 0.598512
vt 0.647917 0.594804
vt 0.647917 0.642152
vt 0.370225 0.610930
vt 0.431305 0.610930
vt 0.431305 0.629237
vt 0.671308 0.657046
vt 0.701876 0.666260
vt 0.659047 0.600577
vt 0.659047 0.640568
vt 0.791204 0.645860
vt 0.776689 0.665368
vt 0.776689 0.661659
vt 0.791204 0.642152
vt 0.791204 0.598512
vt 0.791204 0.594804
vt 0.780074 0.640568
vt 0.767813 0.657046
vt 0.780074 0.600577
vt 0.737246 0.666260
vt 0.745198 0.622333
vt 0.753657 0.595902
vt 0.757286 0.594151
vt 0.748496 0.621616
vt 0.264592 0.578925
vt 0.264592 0.624863
vt 0.784822 0.601117
vt 0.776581 0.623120
vt 0.781106 0.622434
vt 0.789668 0.599571
vt 0.648240 0.608796
vt 0.686682 0.614554
vt 0.686682 0.644858
vt 0.648240 0.640435
vt 0.685710 0.615537
vt 0.264592 0.567919
vt 0.648717 0.609997
vt 0.738598 0.651088
vt 0.768853 0.654823
vt 0.685710 0.644699
vt 0.648717 0.640443
vt 0.764788 0.654290
vt 0.735672 0.650696
s 1
usemtl Materiál.007
f 1/1/1 2/1/1 4/2/1 3/2/1
f 3/2/2 4/2/2 8/3/2 7/3/2
f 7/3/3 8/3/3 6/4/3 5/4/3
f 5/4/4 6/4/4 2/1/4 1/1/4
f 3/2/5 7/3/5 5/4/5 1/1/5
f 4/2/6 2/1/6 9/5/6 10/6/6
f 9/7/4 12/7/4 16/8/4 13/8/4
f 2/1/6 6/4/6 12/9/6 9/5/6
f 8/3/6 4/2/6 10/6/6 11/10/6
f 6/4/6 8/3/6 11/10/6 12/9/6
f 16/9/5 15/10/5 19/11/5 20/12/5
f 11/13/2 10/13/2 14/14/2 15/14/2
f 12/7/3 11/13/3 15/14/3 16/8/3
f 10/13/1 9/7/1 13/8/1 14/14/1
f 18/15/1 17/16/1 21/16/1 22/15/1
f 14/6/5 13/5/5 17/16/5 18/15/5
f 13/5/5 16/9/5 20/12/5 17/16/5
f 15/10/5 14/6/5 18/15/5 19/11/5
f 21/17/5 24/17/5 28/18/5 25/18/5
f 17/16/4 20/12/4 24/12/4 21/16/4
f 19/11/2 18/15/2 22/15/2 23/11/2
f 20/12/3 19/11/3 23/11/3 24/12/3
f 28/18/3 27/19/3 31/20/3 32/21/3
f 23/22/5 22/22/5 26/19/5 27/19/5
f 24/17/5 23/22/5 27/19/5 28/18/5
f 22/22/5 21/17/5 25/18/5 26/19/5
f 33/23/7 29/21/7 48/24/7 52/25/7
f 26/19/1 25/18/1 144/18/1 147/18/1 139/18/1 140/19/1
f 34/26/8 38/27/8 53/28/8 49/29/8
f 28/18/9 32/21/9 47/24/9 43/30/9
f 32/21/10 36/23/10 51/25/10 47/24/10
f 40/31/11 37/31/11 56/32/11 55/32/11
f 32/21/12 31/20/12 35/26/12 36/23/12
f 30/20/13 29/21/13 33/23/13 34/26/13
f 39/27/6 38/27/6 37/31/6 40/31/6
f 36/23/14 35/26/14 39/27/14 40/31/14
f 34/26/15 33/23/15 37/31/15 38/27/15
f 31/20/16 27/19/16 42/33/16 46/34/16
f 53/28/6 54/28/6 70/35/6 69/35/6
f 48/24/1 44/30/1 60/36/1 64/37/1
f 50/29/17 46/34/17 62/38/17 66/39/17
f 43/30/3 47/24/3 63/37/3 59/36/3
f 45/34/18 49/29/18 65/39/18 61/38/18
f 56/32/19 52/25/19 68/40/19 72/41/19
f 29/21/20 143/42/20 25/18/20 44/30/20 48/24/20
f 39/27/21 35/26/21 50/29/21 54/28/21
f 30/20/22 34/26/22 49/29/22 45/34/22
f 26/19/23 30/20/23 45/34/23 41/33/23
f 36/23/24 40/31/24 55/32/24 51/25/24
f 35/26/25 31/20/25 46/34/25 50/29/25
f 27/19/26 26/19/26 41/33/26 42/33/26
f 37/31/27 33/23/27 52/25/27 56/32/27
f 38/27/28 39/27/28 54/28/28 53/28/28
f 25/18/29 28/18/29 43/30/29 44/30/29
f 64/37/4 63/37/4 67/40/4 68/40/4
f 60/36/4 59/36/4 63/37/4 64/37/4
f 107/43/2 109/43/2 80/44/2 79/44/2
f 108/45/2 107/43/2 79/44/2 77/46/2
f 105/47/2 106/48/2 75/49/2 73/50/2
f 68/40/4 67/40/4 71/41/4 72/41/4
f 41/33/1 45/34/1 61/38/1 114/51/1 57/52/1
f 42/33/5 41/33/5 57/52/5 58/52/5
f 55/53/6 56/54/6 72/54/6 71/53/6
f 44/30/5 43/30/5 59/36/5 60/36/5
f 49/29/19 53/28/19 69/35/19 65/39/19
f 54/28/30 50/29/30 66/39/30 70/35/30
f 47/24/17 51/25/17 67/40/17 63/37/17
f 51/25/30 55/32/30 71/41/30 67/40/30
f 52/25/18 48/24/18 64/37/18 68/40/18
f 46/34/3 42/33/3 58/52/3 113/55/3 62/38/3
f 76/56/1 74/56/1 82/56/1 84/56/1
f 78/56/31 76/56/31 84/56/31 86/56/31
f 77/57/32 79/57/32 87/57/32 85/57/32
f 106/48/2 108/45/2 77/46/2 75/49/2
f 109/43/2 110/45/2 78/46/2 80/44/2
f 112/48/2 111/47/2 74/50/2 76/49/2
f 110/45/2 112/48/2 76/49/2 78/46/2
f 111/47/2 105/47/2 73/50/2 74/50/2
f 82/56/2 81/57/2 83/57/2 84/56/2
f 86/56/2 85/57/2 87/57/2 88/56/2
f 84/56/2 83/57/2 85/57/2 86/56/2
f 74/56/6 73/57/6 81/57/6 82/56/6
f 80/56/33 78/56/33 86/56/33 88/56/33
f 79/58/5 80/56/5 88/56/5 87/58/5
f 75/57/34 77/57/34 85/57/34 83/57/34
f 73/57/3 75/57/3 83/57/3 81/57/3
f 89/59/35 94/60/35 93/61/35 90/62/35
f 91/63/35 89/59/35 90/62/35 92/64/35
f 94/60/35 96/65/35 95/66/35 93/61/35
f 99/67/36 101/68/36 119/69/36 117/70/36
f 103/71/37 104/72/38 122/73/39 121/74/40
f 104/72/38 102/75/41 120/76/41 122/73/39
f 93/61/42 95/66/42 103/71/42 101/68/42
f 94/60/43 89/59/43 98/77/43 102/75/43
f 89/59/3 91/63/3 97/78/3 98/77/3
f 96/65/44 94/60/44 102/75/44 104/72/44
f 95/66/45 96/65/45 104/72/45 103/71/45
f 90/62/46 93/61/46 101/68/46 99/67/46
f 91/79/47 92/53/47 100/53/47 97/79/47
f 92/64/1 90/62/1 99/67/1 100/80/1
f 58/56/2 57/57/2 105/57/2 111/81/2
f 66/39/2 62/38/2 112/48/2 110/45/2
f 62/38/2 113/55/2 111/47/2 112/48/2
f 70/35/2 66/39/2 110/45/2 109/43/2
f 61/38/2 65/39/2 108/45/2 106/48/2
f 57/57/2 114/57/2 105/57/2
f 65/39/2 69/35/2 107/43/2 108/45/2
f 69/35/2 70/35/2 109/43/2 107/43/2
f 97/78/48 57/82/48 58/83/48 100/80/48
f 113/83/1 92/64/1 100/80/1 58/83/1
f 111/81/2 113/56/2 58/56/2
f 105/47/2 114/51/2 61/38/2 106/48/2
f 91/63/3 114/82/3 57/82/3 97/78/3
f 92/64/49 113/83/49 111/84/49 105/85/49 114/82/49 91/63/49
f 121/86/50 122/87/50 130/88/50 129/89/50
f 122/87/51 120/90/51 128/91/51 130/88/51
f 116/92/3 115/93/3 123/94/3 124/95/3
f 97/78/52 100/80/52 118/96/52 115/97/52
f 100/80/53 99/67/53 117/70/53 118/96/53
f 101/68/54 103/71/37 121/74/40 119/69/54
f 102/75/55 98/77/55 116/98/55 120/76/55
f 98/77/56 97/78/56 115/97/56 116/98/56
f 130/88/57 128/91/57 136/99/57 138/100/57
f 124/95/58 123/94/58 131/101/58 132/102/58
f 128/91/59 124/95/59 132/102/59 136/99/59
f 117/103/60 119/104/60 127/105/60 125/106/60
f 115/93/61 118/107/61 126/108/61 123/94/61
f 118/107/1 117/103/1 125/106/1 126/108/1
f 119/104/62 121/86/62 129/89/62 127/105/62
f 120/90/63 116/92/63 124/95/63 128/91/63
f 132/102/64 133/109/64 135/110/64 136/99/64
f 131/101/64 134/111/64 133/109/64 132/102/64
f 136/99/64 135/110/64 137/112/64 138/100/64
f 129/89/65 130/88/65 138/100/65 137/112/65
f 125/106/66 127/105/66 135/110/66 133/109/66
f 123/94/67 126/108/67 134/111/67 131/101/67
f 126/108/68 125/106/68 133/109/68 134/111/68
f 127/105/69 129/89/69 137/112/69 135/110/69
f 149/113/70 147/114/70 159/115/70 155/116/70
f 25/18/1 143/42/1 146/117/1 144/18/1
f 29/21/1 30/20/1 142/20/1 141/21/1 148/118/1 145/118/1
f 30/20/1 26/19/1 140/19/1 142/20/1
f 144/119/71 146/120/72 156/121/72 158/122/71
f 151/123/1 150/124/1 152/125/1 153/126/1
f 145/118/1 146/117/1 143/42/1 29/21/1
f 139/127/73 149/113/73 155/116/73 150/124/73
f 147/18/1 149/128/1 139/18/1
f 140/129/74 139/127/74 150/124/74 151/123/74
f 150/124/1 155/116/1 154/130/1 152/125/1
f 158/122/1 156/121/1 155/116/1 159/115/1
f 154/130/1 155/116/1 156/121/1 157/131/1
f 141/132/75 142/133/76 153/126/76 152/125/75
f 147/114/77 144/119/77 158/122/77 159/115/77
f 145/134/78 148/135/79 154/130/79 157/131/78
f 148/135/79 141/132/75 152/125/75 154/130/79
f 146/120/72 145/134/80 157/131/80 156/121/72
f 142/133/2 140/129/2 151/123/2 153/126/2
o Plocha.001
v 1.862148 2.820962 60.770828
v 1.443410 2.820962 60.770828
v 1.862148 3.008687 60.920158
v 1.443410 3.008687 60.920158
vn -0.0000 0.6225 -0.7826
vt 0.358012 0.555696
vt 0.498857 0.555696
vt 0.498857 0.639995
vt 0.358012 0.639995
s 1
usemtl Materiál.037
f 160/136/81 161/137/81 163/138/81 162/139/81
o Kocka.013
v 1.487084 2.326069 61.833618
v 1.487084 2.671227 61.833618
v 1.516862 2.326069 61.407959
v 1.516862 2.671227 61.407959
v 2.147754 2.326069 61.879837
v 2.147754 2.671227 61.879837
v 2.177532 2.326069 61.454178
v 2.177532 2.671227 61.454178
vn -0.9976 -0.0000 -0.0698
vn 0.0698 -0.0000 -0.9976
vn 0.9976 -0.0000 0.0698
vn -0.0698 -0.0000 0.9976
vn -0.0000 -1.0000 -0.0000
vn -0.0000 1.0000 -0.0000
vt 0.309137 0.454570
vt 0.309137 0.808042
vt 0.662727 0.808042
vt 0.662727 0.454570
vt 0.658635 0.454389
vt 0.658635 0.808173
vt 0.311938 0.808173
vt 0.311938 0.454389
vt 0.311885 0.454389
vt 0.311885 0.808174
vt 0.658669 0.808174
vt 0.658669 0.454389
vt 0.309365 0.807228
vt 0.662142 0.808008
vt 0.662465 0.454894
vt 0.309687 0.454114
s 1
usemtl Materiál.036
f 164/140/82 165/141/82 167/142/82 166/143/82
f 166/144/83 167/145/83 171/146/83 170/147/83
f 170/143/84 171/142/84 169/141/84 168/140/84
f 168/148/85 169/149/85 165/150/85 164/151/85
f 166/152/86 170/153/86 168/154/86 164/155/86
f 171/153/87 167/152/87 165/155/87 169/154/87
o Plocha.003
v 2.313799 2.818292 60.680359
v 1.965474 2.818292 60.443172
v 2.177927 2.818292 60.879894
v 1.829602 2.818292 60.642708
vn -0.0000 1.0000 -0.0000
vt 0.358012 0.555696
vt 0.498857 0.555696
vt 0.498857 0.639995
vt 0.358012 0.639995
s 1
usemtl Materiál.039
f 172/156/88 173/157/88 175/158/88 174/159/88
o Plocha.002
v 2.232104 2.816323 60.642376
v 2.147826 2.816323 60.229481
v 1.995575 2.816323 60.690655
v 1.911297 2.816323 60.277760
vn -0.0000 1.0000 -0.0000
vt 0.358012 0.555696
vt 0.498857 0.555696
vt 0.498857 0.639995
vt 0.358012 0.639995
s 1
usemtl Materiál.038
f 176/160/89 177/161/89 179/162/89 178/163/89
